<svg width="40" height="40" viewBox="0 0 40 40" fill="none" xmlns="http://www.w3.org/2000/svg">
<rect width="40" height="40" rx="20" fill="#E8F3FF"/>
<path fill-rule="evenodd" clip-rule="evenodd" d="M12 20C12 15.5883 15.5883 12 20 12C24.4117 12 28 15.5883 28 20C28 24.4117 24.4117 28 20 28C15.5883 28 12 24.4117 12 20ZM20 16C20 15.6318 19.7015 15.3333 19.3333 15.3333C18.9651 15.3333 18.6667 15.6318 18.6667 16V20.4444C18.6667 20.8126 18.9651 21.1111 19.3333 21.1111H22.6667C23.0349 21.1111 23.3333 20.8126 23.3333 20.4444C23.3333 20.0763 23.0349 19.7778 22.6667 19.7778H20V16Z" fill="#165DFF"/>
</svg>
