<svg width="40" height="40" viewBox="0 0 40 40" fill="none" xmlns="http://www.w3.org/2000/svg">
<rect width="40" height="40" rx="20" fill="#FFF7E8"/>
<path d="M21.0676 22.6556H18.9076V21.6818L12.2188 19.214V25.5356C12.2188 26.022 12.412 26.4886 12.756 26.8325C13.1 27.1765 13.5665 27.3698 14.053 27.3698H25.9249C26.4113 27.3698 26.8778 27.1765 27.2218 26.8325C27.5658 26.4886 27.7591 26.022 27.7591 25.5356V19.0259L21.0676 21.6674V22.6556Z" fill="#FF7D00"/>
<path d="M25.9249 15.2603H23.9044V13.2884C23.9044 13.1938 23.8857 13.1002 23.8495 13.0128C23.8134 12.9255 23.7603 12.8461 23.6935 12.7792C23.6266 12.7124 23.5472 12.6593 23.4599 12.6232C23.3725 12.587 23.2789 12.5684 23.1844 12.5684H16.7944C16.6034 12.5684 16.4203 12.6442 16.2852 12.7792C16.1502 12.9143 16.0744 13.0974 16.0744 13.2884V15.2603H14.053C13.812 15.2601 13.5735 15.3075 13.3509 15.3996C13.1283 15.4918 12.9261 15.6269 12.7557 15.7972C12.5854 15.9676 12.4503 16.1698 12.3581 16.3924C12.266 16.615 12.2186 16.8536 12.2188 17.0945V17.6777L18.9093 20.1455V19.1951H21.0694V20.1176L27.7591 17.4797V17.0945C27.7592 16.8536 27.7118 16.615 27.6197 16.3924C27.5275 16.1698 27.3924 15.9676 27.2221 15.7972C27.0517 15.6269 26.8495 15.4918 26.6269 15.3996C26.4043 15.3075 26.1658 15.2601 25.9249 15.2603ZM17.5153 15.2603V14.0093H22.4653V15.2603H17.5153Z" fill="#FF7D00"/>
</svg>
