<svg width="20" height="19" viewBox="0 0 20 19" fill="none" xmlns="http://www.w3.org/2000/svg">
<path fill-rule="evenodd" clip-rule="evenodd" d="M2.19622 17.9795L17.8034 17.9795C18.1787 17.9795 18.4819 17.6763 18.4819 17.3009L18.4819 1.69378C18.4819 1.31844 18.1787 1.01521 17.8034 1.01521L2.19622 1.0152C1.82089 1.0152 1.51765 1.31844 1.51765 1.69378L1.51765 17.3009C1.51765 17.6763 1.82088 17.9795 2.19622 17.9795ZM13.223 4.40812L14.9194 4.40812C15.0127 4.40812 15.0891 4.48446 15.0891 4.57776L15.0891 14.417C15.0891 14.5104 15.0127 14.5867 14.9194 14.5867L13.223 14.5867C13.1297 14.5867 13.0534 14.5104 13.0534 14.417L13.0534 4.57776C13.0534 4.48446 13.1297 4.40812 13.223 4.40812ZM9.15157 10.3456L10.848 10.3456C10.9413 10.3456 11.0176 10.422 11.0176 10.5153L11.0176 14.417C11.0176 14.5104 10.9413 14.5867 10.848 14.5867L9.15157 14.5867C9.05826 14.5867 8.98192 14.5104 8.98192 14.417L8.98192 10.5153C8.98192 10.422 9.05826 10.3456 9.15157 10.3456ZM6.77657 8.81883L5.08014 8.81883C4.98683 8.81883 4.9105 8.89517 4.9105 8.98847L4.9105 14.417C4.9105 14.5104 4.98683 14.5867 5.08014 14.5867L6.77657 14.5867C6.86987 14.5867 6.94621 14.5104 6.94621 14.417L6.94621 8.98847C6.94621 8.89517 6.86987 8.81883 6.77657 8.81883Z" fill="#165DFF"/>
</svg>
