<svg width="20" height="19" viewBox="0 0 20 19" fill="none" xmlns="http://www.w3.org/2000/svg">
<g id="icon_statisticians_outline">
<g id="icon_statisticians_outline_2">
<g id="Icon /Project">
<path id="Vector" d="M14.9189 4.40806L13.2225 4.40806C13.1292 4.40806 13.0529 4.4844 13.0529 4.5777L13.0529 14.417C13.0529 14.5103 13.1292 14.5866 13.2225 14.5866L14.9189 14.5866C15.0122 14.5866 15.0886 14.5103 15.0886 14.417L15.0886 4.5777C15.0886 4.4844 15.0122 4.40806 14.9189 4.40806ZM10.8475 10.3456L9.15109 10.3456C9.05778 10.3456 8.98145 10.4219 8.98145 10.5152L8.98144 14.417C8.98144 14.5103 9.05778 14.5866 9.15109 14.5866L10.8475 14.5866C10.9408 14.5866 11.0172 14.5103 11.0172 14.417L11.0172 10.5152C11.0172 10.4219 10.9408 10.3456 10.8475 10.3456ZM6.77609 8.81878L5.07966 8.81878C4.98635 8.81878 4.91002 8.89511 4.91002 8.98842L4.91002 14.417C4.91002 14.5103 4.98635 14.5866 5.07966 14.5866L6.77609 14.5866C6.86939 14.5866 6.94573 14.5103 6.94573 14.417L6.94573 8.98842C6.94573 8.89511 6.86939 8.81878 6.77609 8.81878ZM2.19573 17.9795L17.8029 17.9795C18.1782 17.9795 18.4814 17.6763 18.4814 17.3009L18.4814 1.69378C18.4814 1.31844 18.1782 1.0152 17.8029 1.0152L2.19573 1.0152C1.8204 1.0152 1.51716 1.31844 1.51716 1.69377L1.51716 17.3009C1.51716 17.6763 1.82039 17.9795 2.19573 17.9795ZM3.04394 2.54199L16.9547 2.54199L16.9547 16.4527L3.04394 16.4527L3.04394 2.54199Z" fill="#4E5969"/>
</g>
</g>
</g>
</svg>
