<svg width="20" height="19" viewBox="0 0 20 19" fill="none" xmlns="http://www.w3.org/2000/svg">
<g clip-path="url(#clip0_4295_28636)">
<path d="M17.2644 4.76272L12.701 0.19933C12.5738 0.0720982 12.402 0 12.2218 0H3.21373C2.83839 0 2.53516 0.303237 2.53516 0.678571V18.3214C2.53516 18.6968 2.83839 19 3.21373 19H16.7852C17.1605 19 17.4637 18.6968 17.4637 18.3214V5.24408C17.4637 5.06384 17.3916 4.88996 17.2644 4.76272ZM15.8988 5.5558H11.9079V1.56496L15.8988 5.5558ZM15.9369 17.4732H4.06194V1.52679H10.466V6.10714C10.466 6.34335 10.5598 6.56989 10.7268 6.73691C10.8938 6.90393 11.1204 6.99777 11.3566 6.99777H15.9369V17.4732ZM9.8298 11.7478H5.92801C5.83471 11.7478 5.75837 11.8241 5.75837 11.9174V12.9353C5.75837 13.0286 5.83471 13.1049 5.92801 13.1049H9.8298C9.9231 13.1049 9.99944 13.0286 9.99944 12.9353V11.9174C9.99944 11.8241 9.9231 11.7478 9.8298 11.7478ZM5.75837 9.03348V10.0513C5.75837 10.1446 5.83471 10.221 5.92801 10.221H14.0709C14.1642 10.221 14.2405 10.1446 14.2405 10.0513V9.03348C14.2405 8.94018 14.1642 8.86384 14.0709 8.86384H5.92801C5.83471 8.86384 5.75837 8.94018 5.75837 9.03348Z" fill="#4E5969"/>
</g>
<defs>
<clipPath id="clip0_4295_28636">
<rect width="19" height="19" fill="white" transform="translate(0.5)"/>
</clipPath>
</defs>
</svg>
