<svg width="20" height="19" viewBox="0 0 20 19" fill="none" xmlns="http://www.w3.org/2000/svg">
<g id="icon_application_filled">
<g id="icon_application_filled_2">
<g id="Icon /FileTextfille">
<path id="Subtract" fill-rule="evenodd" clip-rule="evenodd" d="M12.701 0.19933L17.2644 4.76272C17.3916 4.88996 17.4637 5.06384 17.4637 5.24408V18.3214C17.4637 18.6968 17.1605 19 16.7852 19H3.21373C2.83839 19 2.53516 18.6968 2.53516 18.3214V0.678571C2.53516 0.303237 2.83839 0 3.21373 0H12.2218C12.402 0 12.5738 0.0720982 12.701 0.19933ZM11.9079 5.5558H15.8988L11.9079 1.56496V5.5558ZM5.75836 9.0335V10.0514C5.75836 10.1447 5.8347 10.221 5.928 10.221H14.0709C14.1642 10.221 14.2405 10.1447 14.2405 10.0514V9.0335C14.2405 8.9402 14.1642 8.86386 14.0709 8.86386H5.928C5.8347 8.86386 5.75836 8.9402 5.75836 9.0335ZM9.82978 11.7478H5.928C5.8347 11.7478 5.75836 11.8241 5.75836 11.9174V12.9353C5.75836 13.0286 5.8347 13.1049 5.928 13.1049H9.82978C9.92309 13.1049 9.99943 13.0286 9.99943 12.9353V11.9174C9.99943 11.8241 9.92309 11.7478 9.82978 11.7478Z" fill="#165DFF"/>
</g>
</g>
</g>
</svg>
