<svg width="40" height="40" viewBox="0 0 40 40" fill="none" xmlns="http://www.w3.org/2000/svg">
<rect width="40" height="40" rx="20" fill="#E8F3FF"/>
<g clip-path="url(#clip0_4298_28675)">
<path fill-rule="evenodd" clip-rule="evenodd" d="M15.3196 12H24.6796C26.1516 12 27.3596 13.2 27.3596 14.664V26.392C27.3596 27.128 26.7596 27.728 26.0236 27.728C25.7516 27.728 25.5516 27.664 25.3516 27.528L23.4796 26.464C23.3596 26.4 23.2396 26.368 23.1276 26.368C22.9836 26.368 22.8556 26.416 22.7436 26.528L21.5356 27.464C21.0716 27.8 20.5356 28 19.9996 28C19.4636 28 18.9356 27.8 18.4636 27.464L17.3276 26.528C17.2156 26.416 17.0636 26.368 16.9196 26.368C16.7996 26.368 16.6796 26.408 16.5916 26.464L14.6476 27.528C14.4316 27.656 14.2236 27.704 14.0076 27.704C13.8876 27.704 13.7596 27.688 13.6396 27.664C13.3116 27.6 12.9756 27.328 12.8396 27.064C12.7036 26.864 12.6396 26.6 12.6396 26.4V14.664C12.6396 13.2 13.8476 12 15.3196 12ZM19.333 14.6667C19.7012 14.6667 19.9996 14.9651 19.9996 15.3333V19.1111H22.6663C23.0345 19.1111 23.333 19.4096 23.333 19.7778C23.333 20.146 23.0345 20.4444 22.6663 20.4444H19.333C18.9648 20.4444 18.6663 20.146 18.6663 19.7778V15.3333C18.6663 14.9651 18.9648 14.6667 19.333 14.6667Z" fill="#165DFF"/>
</g>
<defs>
<clipPath id="clip0_4298_28675">
<rect width="16" height="16" fill="white" transform="translate(12 12)"/>
</clipPath>
</defs>
</svg>
