<svg width="114" height="114" viewBox="0 0 114 114" fill="none" xmlns="http://www.w3.org/2000/svg">
<g clip-path="url(#clip0_4383_29722)">
<path d="M31.01 81.5596C27.8097 79.4617 22.7223 75.0122 26.0007 69.422C31.0096 60.8807 64.4044 39.4525 82.354 33.9082" stroke="#2E3744" stroke-width="2"/>
<path d="M91.7113 36.7349C96.0824 36.7349 99.626 32.9187 99.626 28.2112C99.626 23.5037 96.0824 19.6875 91.7113 19.6875L50.3114 19.6875C45.9402 19.6875 42.3967 23.5037 42.3967 28.2112C42.3967 32.9187 45.9402 36.7349 50.3114 36.7349L91.7113 36.7349Z" fill="#2E3744"/>
<path d="M92.1415 19.6892L92.1413 19.272H91.7241H38.9594C34.217 19.272 30.4244 23.4026 30.4244 28.4317V96.1095V96.5269H30.8418H86.4476H86.865V96.1095V26.4647C86.865 23.2786 89.0219 20.6727 91.7959 20.1883L92.1417 20.1279L92.1415 19.7769L92.1415 19.6892Z" fill="url(#paint0_linear_4383_29722)" stroke="url(#paint1_linear_4383_29722)" stroke-width="0.834862"/>
<path fill-rule="evenodd" clip-rule="evenodd" d="M23.1485 97.963C25.5956 98.1777 27.3873 98.8707 27.3873 99.6925C27.3873 100.514 25.596 101.207 23.1493 101.422C22.9504 104.06 22.3066 105.991 21.543 105.991C20.7794 105.991 20.1356 104.06 19.9367 101.422C17.4903 101.207 15.6992 100.514 15.6992 99.6925C15.6992 98.8708 17.4907 98.1778 19.9375 97.9631C20.1373 95.3309 20.7805 93.4043 21.543 93.4043C22.3055 93.4043 22.9487 95.3309 23.1485 97.963Z" fill="url(#paint2_linear_4383_29722)"/>
<path d="M17.1298 53.4649C17.0641 54.1353 16.3162 54.4934 15.8099 54.0969L11.6312 50.8237C11.1432 50.4415 11.2466 49.6386 11.8192 49.3645L16.5407 47.1038C17.1132 46.8297 17.736 47.2848 17.6726 47.9311L17.1298 53.4649Z" fill="url(#paint3_linear_4383_29722)"/>
<path d="M51.6289 55.0869H68.3262" stroke="#4E5969" stroke-linecap="round"/>
<path d="M51.6289 46.7393H68.3262" stroke="#4E5969" stroke-linecap="round"/>
<path d="M51.6279 38.3906H68.3252" stroke="#4E5969" stroke-linecap="round"/>
<g filter="url(#filter0_b_4383_29722)">
<mask id="path-9-inside-1_4383_29722" fill="white">
<path fill-rule="evenodd" clip-rule="evenodd" d="M78.8884 78.5533C78.5668 77.7768 78.4014 76.9446 78.4014 76.1041C78.4014 75.2636 78.5668 74.4314 78.8884 73.6549C79.2099 72.8784 79.6811 72.1729 80.2752 71.5786C80.8692 70.9843 81.5745 70.5129 82.3507 70.1913C83.1269 69.8696 83.9588 69.7041 84.7989 69.7041C85.6391 69.7041 86.471 69.8696 87.2472 70.1913C88.0234 70.5129 88.7286 70.9843 89.3227 71.5786C89.9168 72.1729 90.388 72.8784 90.7095 73.6549C91.031 74.4314 91.1965 75.2636 91.1965 76.1041C91.1965 76.9446 91.031 77.7768 90.7095 78.5533C90.388 79.3298 89.9168 80.0353 89.3227 80.6296C88.7286 81.2239 88.0234 81.6953 87.2472 82.0169C86.471 82.3386 85.6391 82.5041 84.7989 82.5041C83.9588 82.5041 83.1269 82.3386 82.3507 82.0169C81.5745 81.6953 80.8692 81.2239 80.2752 80.6296C79.6811 80.0353 79.2099 79.3298 78.8884 78.5533ZM80.1039 84.8736H89.2101C95.8891 84.8736 101.354 90.7593 101.354 97.9531V98.7662C101.354 102.562 98.4708 105.667 94.9473 105.667H74.3667C70.8427 105.667 67.96 102.562 67.96 98.7662V97.9531C67.96 90.7593 73.4249 84.8736 80.1039 84.8736Z"/>
</mask>
<path fill-rule="evenodd" clip-rule="evenodd" d="M78.8884 78.5533C78.5668 77.7768 78.4014 76.9446 78.4014 76.1041C78.4014 75.2636 78.5668 74.4314 78.8884 73.6549C79.2099 72.8784 79.6811 72.1729 80.2752 71.5786C80.8692 70.9843 81.5745 70.5129 82.3507 70.1913C83.1269 69.8696 83.9588 69.7041 84.7989 69.7041C85.6391 69.7041 86.471 69.8696 87.2472 70.1913C88.0234 70.5129 88.7286 70.9843 89.3227 71.5786C89.9168 72.1729 90.388 72.8784 90.7095 73.6549C91.031 74.4314 91.1965 75.2636 91.1965 76.1041C91.1965 76.9446 91.031 77.7768 90.7095 78.5533C90.388 79.3298 89.9168 80.0353 89.3227 80.6296C88.7286 81.2239 88.0234 81.6953 87.2472 82.0169C86.471 82.3386 85.6391 82.5041 84.7989 82.5041C83.9588 82.5041 83.1269 82.3386 82.3507 82.0169C81.5745 81.6953 80.8692 81.2239 80.2752 80.6296C79.6811 80.0353 79.2099 79.3298 78.8884 78.5533ZM80.1039 84.8736H89.2101C95.8891 84.8736 101.354 90.7593 101.354 97.9531V98.7662C101.354 102.562 98.4708 105.667 94.9473 105.667H74.3667C70.8427 105.667 67.96 102.562 67.96 98.7662V97.9531C67.96 90.7593 73.4249 84.8736 80.1039 84.8736Z" fill="#C4F7F7" fill-opacity="0.4"/>
<path d="M78.8884 78.5533L79.9682 78.1061L79.9682 78.1061L78.8884 78.5533ZM78.8884 73.6549L79.9682 74.1021L79.9682 74.1021L78.8884 73.6549ZM80.2752 71.5786L81.1018 72.4049L81.1018 72.4049L80.2752 71.5786ZM82.3507 70.1913L81.9033 69.1115L82.3507 70.1913ZM87.2472 70.1913L87.6946 69.1115V69.1115L87.2472 70.1913ZM89.3227 71.5786L88.4961 72.4049V72.4049L89.3227 71.5786ZM89.3227 80.6296L88.4961 79.8033V79.8033L89.3227 80.6296ZM87.2472 82.0169L86.7998 80.9372L87.2472 82.0169ZM82.3507 82.0169L82.7981 80.9372L82.7981 80.9372L82.3507 82.0169ZM80.2752 80.6296L81.1018 79.8033L80.2752 80.6296ZM77.2326 76.1041C77.2326 77.098 77.4282 78.0822 77.8085 79.0004L79.9682 78.1061C79.7054 77.4714 79.5702 76.7911 79.5702 76.1041H77.2326ZM77.8085 73.2078C77.4282 74.126 77.2326 75.1102 77.2326 76.1041H79.5702C79.5702 75.4171 79.7054 74.7368 79.9682 74.1021L77.8085 73.2078ZM79.4485 70.7523C78.746 71.4552 78.1887 72.2895 77.8085 73.2078L79.9682 74.1021C80.2311 73.4674 80.6162 72.8907 81.1018 72.4049L79.4485 70.7523ZM81.9033 69.1115C80.9852 69.4919 80.1511 70.0495 79.4485 70.7523L81.1018 72.4049C81.5874 71.9192 82.1638 71.5339 82.7981 71.271L81.9033 69.1115ZM84.7989 68.5353C83.8052 68.5353 82.8213 68.7311 81.9033 69.1115L82.7981 71.271C83.4325 71.0082 84.1123 70.8729 84.7989 70.8729V68.5353ZM87.6946 69.1115C86.7766 68.7311 85.7926 68.5353 84.7989 68.5353V70.8729C85.4855 70.8729 86.1654 71.0082 86.7998 71.271L87.6946 69.1115ZM90.1493 70.7523C89.4467 70.0495 88.6126 69.4919 87.6946 69.1115L86.7998 71.271C87.4341 71.5339 88.0105 71.9192 88.4961 72.4049L90.1493 70.7523ZM91.7894 73.2078C91.4092 72.2895 90.8519 71.4552 90.1493 70.7523L88.4961 72.4049C88.9816 72.8907 89.3668 73.4674 89.6296 74.1021L91.7894 73.2078ZM92.3653 76.1041C92.3653 75.1102 92.1696 74.126 91.7894 73.2078L89.6296 74.1021C89.8924 74.7368 90.0277 75.4171 90.0277 76.1041H92.3653ZM91.7894 79.0004C92.1696 78.0822 92.3653 77.098 92.3653 76.1041H90.0277C90.0277 76.7911 89.8924 77.4714 89.6296 78.1061L91.7894 79.0004ZM90.1493 81.4559C90.8519 80.7531 91.4092 79.9187 91.7894 79.0004L89.6296 78.1061C89.3668 78.7408 88.9816 79.3175 88.4961 79.8033L90.1493 81.4559ZM87.6946 83.0967C88.6126 82.7163 89.4467 82.1587 90.1493 81.4559L88.4961 79.8033C88.0105 80.289 87.4341 80.6743 86.7998 80.9372L87.6946 83.0967ZM84.7989 83.6729C85.7926 83.6729 86.7766 83.4771 87.6946 83.0967L86.7998 80.9372C86.1654 81.2 85.4855 81.3353 84.7989 81.3353V83.6729ZM81.9033 83.0967C82.8213 83.4771 83.8052 83.6729 84.7989 83.6729V81.3353C84.1123 81.3353 83.4325 81.2 82.7981 80.9372L81.9033 83.0967ZM79.4485 81.4559C80.1511 82.1587 80.9852 82.7163 81.9033 83.0967L82.7981 80.9372C82.1638 80.6743 81.5874 80.289 81.1018 79.8033L79.4485 81.4559ZM77.8085 79.0004C78.1887 79.9187 78.746 80.7531 79.4485 81.4559L81.1018 79.8033C80.6162 79.3175 80.2311 78.7408 79.9682 78.1061L77.8085 79.0004ZM89.2101 83.7048H80.1039V86.0424H89.2101V83.7048ZM102.523 97.9531C102.523 90.1969 96.6147 83.7048 89.2101 83.7048V86.0424C95.1635 86.0424 100.186 91.3216 100.186 97.9531H102.523ZM102.523 98.7662V97.9531H100.186V98.7662H102.523ZM94.9473 106.835C99.1964 106.835 102.523 103.124 102.523 98.7662H100.186C100.186 101.999 97.7452 104.498 94.9473 104.498V106.835ZM74.3667 106.835H94.9473V104.498H74.3667V106.835ZM66.7912 98.7662C66.7912 103.124 70.117 106.835 74.3667 106.835V104.498C71.5685 104.498 69.1288 101.999 69.1288 98.7662H66.7912ZM66.7912 97.9531V98.7662H69.1288V97.9531H66.7912ZM80.1039 83.7048C72.6992 83.7048 66.7912 90.1969 66.7912 97.9531H69.1288C69.1288 91.3216 74.1505 86.0424 80.1039 86.0424V83.7048Z" fill="#C4F7F7" mask="url(#path-9-inside-1_4383_29722)"/>
</g>
<path fill-rule="evenodd" clip-rule="evenodd" d="M103.866 64.7621C105.789 64.9186 107.197 65.4243 107.197 66.024C107.197 66.6237 105.789 67.1294 103.865 67.2859C103.709 69.207 103.203 70.6132 102.604 70.6132C102.005 70.6132 101.499 69.2068 101.342 67.2857C99.4206 67.1289 98.0137 66.6234 98.0137 66.024C98.0137 65.4247 99.4204 64.9192 101.342 64.7624C101.498 62.8386 102.004 61.4297 102.604 61.4297C103.204 61.4297 103.709 62.8384 103.866 64.7621Z" fill="url(#paint4_linear_4383_29722)"/>
<path d="M56.9445 73.2466L56.1291 67.0243C63.4415 63.6296 67.9175 61.6709 81.4255 57.0442C87.5655 54.9411 94.9068 52.0009 99.7463 49.1823L100.119 55.0145C97.3886 58.1167 78.5182 63.9222 74.8222 64.9947C70.34 66.2952 63.146 69.9228 56.9445 73.2466Z" fill="#C4F7F7"/>
<ellipse cx="81.2668" cy="10.928" rx="2.08716" ry="2.08715" stroke="#C1D4FF" stroke-width="1.66972"/>
</g>
<defs>
<filter id="filter0_b_4383_29722" x="67.0702" y="68.8144" width="35.174" height="37.7424" filterUnits="userSpaceOnUse" color-interpolation-filters="sRGB">
<feFlood flood-opacity="0" result="BackgroundImageFix"/>
<feGaussianBlur in="BackgroundImageFix" stdDeviation="0.444871"/>
<feComposite in2="SourceAlpha" operator="in" result="effect1_backgroundBlur_4383_29722"/>
<feBlend mode="normal" in="SourceGraphic" in2="effect1_backgroundBlur_4383_29722" result="shape"/>
</filter>
<linearGradient id="paint0_linear_4383_29722" x1="61.283" y1="19.6895" x2="61.283" y2="96.1095" gradientUnits="userSpaceOnUse">
<stop stop-color="white"/>
<stop offset="0.0001" stop-color="#DDE7FF"/>
<stop offset="1" stop-color="#6292FF"/>
</linearGradient>
<linearGradient id="paint1_linear_4383_29722" x1="30.7081" y1="29.1281" x2="86.6439" y2="29.1281" gradientUnits="userSpaceOnUse">
<stop stop-color="white"/>
<stop offset="1" stop-color="white" stop-opacity="0"/>
</linearGradient>
<linearGradient id="paint2_linear_4383_29722" x1="21.5433" y1="93.4043" x2="21.5433" y2="105.991" gradientUnits="userSpaceOnUse">
<stop stop-color="white"/>
<stop offset="0.0001" stop-color="#DDE7FF"/>
<stop offset="1" stop-color="#6292FF"/>
</linearGradient>
<linearGradient id="paint3_linear_4383_29722" x1="16.9781" y1="55.0119" x2="12.7623" y2="46.2071" gradientUnits="userSpaceOnUse">
<stop stop-color="white"/>
<stop offset="0.0001" stop-color="#DDE7FF"/>
<stop offset="1" stop-color="#6292FF"/>
</linearGradient>
<linearGradient id="paint4_linear_4383_29722" x1="102.605" y1="61.4297" x2="102.605" y2="70.6132" gradientUnits="userSpaceOnUse">
<stop stop-color="white"/>
<stop offset="0.0001" stop-color="#DDE7FF"/>
<stop offset="1" stop-color="#6292FF"/>
</linearGradient>
<clipPath id="clip0_4383_29722">
<rect width="114" height="114" fill="white"/>
</clipPath>
</defs>
</svg>
