<svg width="40" height="40" viewBox="0 0 40 40" fill="none" xmlns="http://www.w3.org/2000/svg">
<rect width="40" height="40" rx="20" fill="#E6F8EA"/>
<g clip-path="url(#clip0_4329_28827)">
<path d="M13.5948 26.144C13.5948 25.7285 13.9328 25.3905 14.3483 25.3905H25.6516C26.0672 25.3905 26.4052 25.7285 26.4052 26.137C26.4052 26.5525 26.0672 26.8906 25.6516 26.8906H14.3483C13.9328 26.8906 13.5948 26.5525 13.5948 26.144Z" fill="#00B42A"/>
<path d="M13.5948 26.144C13.5948 25.7285 13.9328 25.3905 14.3483 25.3905H25.6516C26.0672 25.3905 26.4052 25.7285 26.4052 26.137C26.4052 26.5525 26.0672 26.8906 25.6516 26.8906H14.3483C13.9328 26.8906 13.5948 26.5525 13.5948 26.144ZM28.9123 17.9043C29.1025 18.2071 28.9687 18.6297 28.6518 18.7283L15.1934 23.1792C14.6441 23.3623 14.0526 23.2003 13.6511 22.7637L11.1088 20.0382C10.8834 19.7988 11.0313 19.3762 11.3412 19.3621L11.7496 19.341C11.9609 19.3339 12.1792 19.3832 12.3623 19.4889L14.0103 20.4326C14.3554 20.6298 14.7709 20.665 15.1442 20.5171L17.8414 19.4466L14.5033 14.6718C14.2638 14.2563 14.4399 13.6999 14.8624 13.552C15.0878 13.4745 15.3625 13.4675 15.6935 13.6436C16.5174 14.0732 19.8979 16.862 20.912 17.7001C21.1022 17.855 21.3275 17.9466 21.5599 17.9536H21.6092L25.3277 16.4817C25.7291 16.3197 26.1657 16.2704 26.5883 16.3409C27.2714 16.4535 28.2433 16.8198 28.9123 17.9043Z" fill="#00B42A"/>
</g>
<defs>
<clipPath id="clip0_4329_28827">
<rect width="18" height="18" fill="white" transform="translate(11 11)"/>
</clipPath>
</defs>
</svg>
