<svg width="40" height="40" viewBox="0 0 40 40" fill="none" xmlns="http://www.w3.org/2000/svg">
<rect width="40" height="40" rx="20" fill="#F7F8FA"/>
<path fill-rule="evenodd" clip-rule="evenodd" d="M14 12.5C13.4477 12.5 13 12.9477 13 13.5V27C13 27.5523 13.4477 28 14 28H26C26.5523 28 27 27.5523 27 27V13.5C27 12.9477 26.5523 12.5 26 12.5H14ZM16.06 16C16.027 16 16 16.0723 16 16.1607V17.125C16 17.2134 16.027 17.2857 16.06 17.2857H18.94C18.973 17.2857 19 17.2134 19 17.125V16.1607C19 16.0723 18.973 16 18.94 16H16.06ZM16.15 19.5C16.0675 19.5 16 19.5723 16 19.6607V20.625C16 20.7134 16.0675 20.7857 16.15 20.7857H23.35C23.4325 20.7857 23.5 20.7134 23.5 20.625V19.6607C23.5 19.5723 23.4325 19.5 23.35 19.5H16.15ZM16 23.1607C16 23.0723 16.0675 23 16.15 23H23.35C23.4325 23 23.5 23.0723 23.5 23.1607V24.125C23.5 24.2134 23.4325 24.2857 23.35 24.2857H16.15C16.0675 24.2857 16 24.2134 16 24.125V23.1607Z" fill="#86909C"/>
</svg>
