<svg width="101" height="88" viewBox="0 0 101 88" fill="none" xmlns="http://www.w3.org/2000/svg">
<g id="Group 5713">
<path id="&#232;&#183;&#175;&#229;&#190;&#132;" d="M59.2234 4.00293C58.6378 6.49438 60.4744 9.11577 64.7333 11.8671C71.1215 15.9941 78.5841 19.7557 76.0603 40.0068" stroke="#1D2129" stroke-width="2" stroke-linecap="round" stroke-linejoin="round"/>
<path id="&#228;&#184;&#137;&#232;&#167;&#146;&#229;&#189;&#162;" fill-rule="evenodd" clip-rule="evenodd" d="M54.5271 3.83693L93.6277 64.3922C96.1393 68.2819 95.022 73.4712 91.1323 75.9827C89.777 76.8578 88.198 77.3233 86.5847 77.3233H8.38356C3.75345 77.3233 0 73.5699 0 68.9398C0 67.3265 0.465482 65.7475 1.3406 64.3922L40.4412 3.83693C42.9528 -0.0527649 48.142 -1.16996 52.0318 1.34159C53.0312 1.9869 53.8818 2.83752 54.5271 3.83693Z" fill="url(#paint0_linear_4383_29712)"/>
<path id="&#232;&#183;&#175;&#229;&#190;&#132;-2" d="M22.4535 36.6265C14.4733 35.8473 10.9945 38.968 12.017 45.9887C13.0394 53.0093 21.174 56.9226 36.4205 57.7285" stroke="#1D2129" stroke-width="2" stroke-linecap="round" stroke-linejoin="round"/>
<path id="&#230;&#164;&#173;&#229;&#156;&#134;&#229;&#189;&#162;" d="M46.6445 28.1161C47.5705 28.1161 48.3212 27.3654 48.3212 26.4394C48.3212 25.5134 47.5705 24.7627 46.6445 24.7627C45.7185 24.7627 44.9678 25.5134 44.9678 26.4394C44.9678 27.3654 45.7185 28.1161 46.6445 28.1161Z" fill="#1D2129"/>
<path id="&#230;&#164;&#173;&#229;&#156;&#134;&#229;&#189;&#162;&#229;&#164;&#135;&#228;&#187;&#189;" d="M56.705 28.1161C57.6311 28.1161 58.3817 27.3654 58.3817 26.4394C58.3817 25.5134 57.6311 24.7627 56.705 24.7627C55.779 24.7627 55.0283 25.5134 55.0283 26.4394C55.0283 27.3654 55.779 28.1161 56.705 28.1161Z" fill="#1D2129"/>
<g id="&#231;&#159;&#169;&#229;&#189;&#162;" filter="url(#filter0_b_4383_29712)">
<path fill-rule="evenodd" clip-rule="evenodd" d="M87.0878 47.4355C87.628 47.4355 88.117 47.6545 88.471 48.0085C88.825 48.3625 89.044 48.8515 89.044 49.3917V78.4545C89.044 80.538 88.1994 82.4243 86.834 83.7897C85.4686 85.1551 83.5823 85.9996 81.4988 85.9996H56.0686C53.9851 85.9996 52.0988 85.1551 50.7334 83.7897C49.368 82.4243 48.5234 80.538 48.5234 78.4545V49.3917C48.5234 48.8515 48.7424 48.3625 49.0964 48.0085C49.4504 47.6545 49.9394 47.4355 50.4796 47.4355H87.0878Z" fill="#C4F7F7" fill-opacity="0.42"/>
<path d="M48.6288 47.5409L48.6288 47.5409C48.1558 48.0138 47.8621 48.6691 47.8621 49.3917V78.4545C47.8621 80.7204 48.7814 82.773 50.2657 84.2573C51.7501 85.7417 53.8027 86.6609 56.0686 86.6609H81.4988C83.7647 86.6609 85.8173 85.7417 87.3016 84.2573C88.786 82.773 89.7053 80.7204 89.7053 78.4545V49.3917C89.7053 48.6691 89.4116 48.0138 88.9386 47.5409C88.4657 47.0679 87.8104 46.7742 87.0878 46.7742H50.4796C49.757 46.7742 49.1017 47.0679 48.6288 47.5409Z" stroke="#C4F7F7" stroke-width="1.32265"/>
</g>
<path id="&#231;&#159;&#169;&#229;&#189;&#162;_2" d="M90.0301 75.9373V76.5986H90.6914H95.0662C96.386 76.5986 97.5791 76.0509 98.439 75.172C99.2987 74.2934 99.8289 73.0808 99.8289 71.7455V59.1703C99.8289 57.835 99.2987 56.6224 98.439 55.7437C97.5791 54.8649 96.386 54.3172 95.0662 54.3172H90.6914H90.0301V54.9785V75.9373Z" fill="#C4F7F7" fill-opacity="0.67" stroke="#C4F7F7" stroke-width="1.32265"/>
<path id="&#232;&#183;&#175;&#229;&#190;&#132;-4" d="M48.8135 32.4961C49.8381 33.8067 50.8628 34.4621 51.8874 34.4621C52.9121 34.4621 53.9368 33.8067 54.9614 32.4961" stroke="#1D2129" stroke-width="2" stroke-linecap="round" stroke-linejoin="round"/>
</g>
<defs>
<filter id="filter0_b_4383_29712" x="44.1188" y="43.0309" width="49.3298" height="47.3737" filterUnits="userSpaceOnUse" color-interpolation-filters="sRGB">
<feFlood flood-opacity="0" result="BackgroundImageFix"/>
<feGaussianBlur in="BackgroundImageFix" stdDeviation="1.54119"/>
<feComposite in2="SourceAlpha" operator="in" result="effect1_backgroundBlur_4383_29712"/>
<feBlend mode="normal" in="SourceGraphic" in2="effect1_backgroundBlur_4383_29712" result="shape"/>
</filter>
<linearGradient id="paint0_linear_4383_29712" x1="47.4846" y1="0" x2="47.4846" y2="77.3233" gradientUnits="userSpaceOnUse">
<stop stop-color="white"/>
<stop offset="0.0001" stop-color="#DDE7FF"/>
<stop offset="1" stop-color="#6292FF"/>
</linearGradient>
</defs>
</svg>
