<svg width="14" height="14" viewBox="0 0 14 14" fill="none" xmlns="http://www.w3.org/2000/svg">
<path d="M10.9641 6.60637L3.92031 1.10481C3.90191 1.09032 3.87979 1.08131 3.8565 1.07883C3.8332 1.07634 3.80968 1.08048 3.78863 1.09076C3.76758 1.10104 3.74986 1.11704 3.7375 1.13694C3.72514 1.15684 3.71864 1.17982 3.71875 1.20325V2.41106C3.71875 2.48762 3.75469 2.56106 3.81406 2.60793L9.43906 7.00012L3.81406 11.3923C3.75313 11.4392 3.71875 11.5126 3.71875 11.5892V12.797C3.71875 12.9017 3.83906 12.9595 3.92031 12.8954L10.9641 7.39387C11.0239 7.34717 11.0724 7.28744 11.1057 7.21921C11.139 7.15098 11.1563 7.07605 11.1563 7.00012C11.1563 6.9242 11.139 6.84927 11.1057 6.78104C11.0724 6.71281 11.0239 6.65307 10.9641 6.60637Z" fill="#C9CDD4"/>
</svg>
